<?xml version="1.0" encoding="UTF-8" standalone="no"?>
<!DOCTYPE svg PUBLIC "-//W3C//DTD SVG 1.1//EN"
 "http://www.w3.org/Graphics/SVG/1.1/DTD/svg11.dtd">
<!-- Generated by graphviz version 2.26.3 (20100126.1600)
 -->
<!-- Title: G Pages: 1 -->
<svg width="346pt" height="368pt"
 viewBox="0.00 0.00 346.00 368.00" xmlns="http://www.w3.org/2000/svg" xmlns:xlink="http://www.w3.org/1999/xlink">
<g id="graph1" class="graph" transform="scale(1 1) rotate(0) translate(4 364)">
<title>G</title>
<polygon fill="white" stroke="white" points="-4,5 -4,-364 343,-364 343,5 -4,5"/>
<g id="graph2" class="cluster"><title>cluster_global</title>
<polyline fill="none" stroke="gray" points="200,-8 318,-8 "/>
<path fill="none" stroke="gray" d="M318,-8C324,-8 330,-14 330,-20"/>
<polyline fill="none" stroke="gray" points="330,-20 330,-340 "/>
<path fill="none" stroke="gray" d="M330,-340C330,-346 324,-352 318,-352"/>
<polyline fill="none" stroke="gray" points="318,-352 200,-352 "/>
<path fill="none" stroke="gray" d="M200,-352C194,-352 188,-346 188,-340"/>
<polyline fill="none" stroke="gray" points="188,-340 188,-20 "/>
<path fill="none" stroke="gray" d="M188,-20C188,-14 194,-8 200,-8"/>
<text text-anchor="middle" x="259" y="-338.1" font-family="Times Roman,serif" font-size="11.00" fill="gray">global</text>
</g>
<!-- \\API_Con_Error -->
<g id="node2" class="node"><title>\\API_Con_Error</title>
<a xlink:href="class-api-con-error.html" xlink:title="API_Con_Error" target="_parent">
<polygon fill="none" stroke="black" points="311,-322 207,-322 207,-286 311,-286 311,-322"/>
<text text-anchor="middle" x="259" y="-301.1" font-family="Courier,monospace" font-size="11.00">API_Con_Error</text>
</a>
</g>
<!-- \\WP_Error -->
<g id="node9" class="node"><title>\\WP_Error</title>
<ellipse fill="none" stroke="black" cx="62" cy="-304" rx="61.0181" ry="18.3848"/>
<text text-anchor="middle" x="62" y="-300.4" font-family="Times Roman,serif" font-size="14.00" fill="gray">\WP_Error</text>
</g>
<!-- \\API_Con_Error&#45;&gt;\\WP_Error -->
<g id="edge3" class="edge"><title>\\API_Con_Error&#45;&gt;\\WP_Error</title>
<path fill="none" stroke="black" d="M206.983,-304C184.64,-304 158.157,-304 133.977,-304"/>
<polygon fill="none" stroke="black" points="133.775,-300.5 123.775,-304 133.775,-307.5 133.775,-300.5"/>
</g>
<!-- \\API_Con_View -->
<g id="node3" class="node"><title>\\API_Con_View</title>
<a xlink:href="class-api-con-view.html" xlink:title="API_Con_View" target="_parent">
<polygon fill="none" stroke="black" points="308,-268 210,-268 210,-232 308,-232 308,-268"/>
<text text-anchor="middle" x="259" y="-247.1" font-family="Courier,monospace" font-size="11.00">API_Con_View</text>
</a>
</g>
<!-- \\API_Con_Consumer -->
<g id="node4" class="node"><title>\\API_Con_Consumer</title>
<a xlink:href="class-api-con-consumer.html" xlink:title="API_Con_Consumer" target="_parent">
<polygon fill="none" stroke="black" points="321,-214 197,-214 197,-178 321,-178 321,-214"/>
<text text-anchor="middle" x="259" y="-193.1" font-family="Courier,monospace" font-size="11.00">API_Con_Consumer</text>
</a>
</g>
<!-- \\API_Con_Manager -->
<g id="node5" class="node"><title>\\API_Con_Manager</title>
<a xlink:href="class-api-con-manager.html" xlink:title="API_Con_Manager" target="_parent">
<polygon fill="none" stroke="black" points="318,-160 200,-160 200,-124 318,-124 318,-160"/>
<text text-anchor="middle" x="259" y="-139.1" font-family="Courier,monospace" font-size="11.00">API_Con_Manager</text>
</a>
</g>
<!-- \\API_Con_Service -->
<g id="node6" class="node"><title>\\API_Con_Service</title>
<a xlink:href="class-api-con-service.html" xlink:title="API_Con_Service" target="_parent">
<polygon fill="none" stroke="black" points="318,-106 200,-106 200,-70 318,-70 318,-106"/>
<text text-anchor="middle" x="259" y="-85.1" font-family="Courier,monospace" font-size="11.00">API_Con_Service</text>
</a>
</g>
<!-- \\API_Con_DTO -->
<g id="node7" class="node"><title>\\API_Con_DTO</title>
<a xlink:href="class-api-con-dto.html" xlink:title="API_Con_DTO" target="_parent">
<polygon fill="none" stroke="black" points="304,-52 214,-52 214,-16 304,-16 304,-52"/>
<text text-anchor="middle" x="259" y="-31.1" font-family="Courier,monospace" font-size="11.00">API_Con_DTO</text>
</a>
</g>
</g>
</svg>
