<?xml version="1.0" encoding="UTF-8" standalone="no"?>
<!DOCTYPE svg PUBLIC "-//W3C//DTD SVG 1.1//EN"
 "http://www.w3.org/Graphics/SVG/1.1/DTD/svg11.dtd">
<!-- Generated by graphviz version 2.26.3 (20100126.1600)
 -->
<!-- Title: G Pages: 1 -->
<svg width="399pt" height="404pt"
 viewBox="0.00 0.00 399.00 404.00" xmlns="http://www.w3.org/2000/svg" xmlns:xlink="http://www.w3.org/1999/xlink">
<g id="graph1" class="graph" transform="scale(1 1) rotate(0) translate(4 400)">
<title>G</title>
<polygon fill="white" stroke="white" points="-4,5 -4,-400 396,-400 396,5 -4,5"/>
<g id="graph2" class="cluster"><title>cluster_global</title>
<polyline fill="none" stroke="gray" points="20,-44 371,-44 "/>
<path fill="none" stroke="gray" d="M371,-44C377,-44 383,-50 383,-56"/>
<polyline fill="none" stroke="gray" points="383,-56 383,-376 "/>
<path fill="none" stroke="gray" d="M383,-376C383,-382 377,-388 371,-388"/>
<polyline fill="none" stroke="gray" points="371,-388 20,-388 "/>
<path fill="none" stroke="gray" d="M20,-388C14,-388 8,-382 8,-376"/>
<polyline fill="none" stroke="gray" points="8,-376 8,-56 "/>
<path fill="none" stroke="gray" d="M8,-56C8,-50 14,-44 20,-44"/>
<text text-anchor="middle" x="195.5" y="-374.1" font-family="Times Roman,serif" font-size="11.00" fill="gray">global</text>
</g>
<!-- \\API_Con_Error -->
<g id="node2" class="node"><title>\\API_Con_Error</title>
<a xlink:href="lib.class-api-con-error.html" xlink:title="API_Con_Error" target="_parent">
<polygon fill="none" stroke="black" points="344,-88 240,-88 240,-52 344,-52 344,-88"/>
<text text-anchor="middle" x="292" y="-67.1" font-family="Courier,monospace" font-size="11.00">API_Con_Error</text>
</a>
</g>
<!-- \\WP_Error -->
<g id="node10" class="node"><title>\\WP_Error</title>
<ellipse fill="none" stroke="black" cx="75" cy="-18" rx="61.0181" ry="18.3848"/>
<text text-anchor="middle" x="75" y="-14.4" font-family="Times Roman,serif" font-size="14.00" fill="gray">\WP_Error</text>
</g>
<!-- \\API_Con_Error&#45;&gt;\\WP_Error -->
<g id="edge3" class="edge"><title>\\API_Con_Error&#45;&gt;\\WP_Error</title>
<path fill="none" stroke="black" d="M239.747,-57.4785C207.469,-49.7438 166.012,-39.8094 132.761,-31.8414"/>
<polygon fill="none" stroke="black" points="133.265,-28.363 122.724,-29.4362 131.633,-35.1703 133.265,-28.363"/>
</g>
<!-- \\API_Con_View -->
<g id="node3" class="node"><title>\\API_Con_View</title>
<a xlink:href="lib.class-api-con-view.html" xlink:title="API_Con_View" target="_parent">
<polygon fill="none" stroke="black" points="341,-304 243,-304 243,-268 341,-268 341,-304"/>
<text text-anchor="middle" x="292" y="-283.1" font-family="Courier,monospace" font-size="11.00">API_Con_View</text>
</a>
</g>
<!-- \\API_Con_Consumer -->
<g id="node4" class="node"><title>\\API_Con_Consumer</title>
<a xlink:href="lib.class-api-con-consumer.html" xlink:title="API_Con_Consumer" target="_parent">
<polygon fill="none" stroke="black" points="354,-250 230,-250 230,-214 354,-214 354,-250"/>
<text text-anchor="middle" x="292" y="-229.1" font-family="Courier,monospace" font-size="11.00">API_Con_Consumer</text>
</a>
</g>
<!-- \\API_Con_Manager -->
<g id="node5" class="node"><title>\\API_Con_Manager</title>
<a xlink:href="lib.class-api-con-manager.html" xlink:title="API_Con_Manager" target="_parent">
<polygon fill="none" stroke="black" points="351,-196 233,-196 233,-160 351,-160 351,-196"/>
<text text-anchor="middle" x="292" y="-175.1" font-family="Courier,monospace" font-size="11.00">API_Con_Manager</text>
</a>
</g>
<!-- \\API_Con_Service -->
<g id="node6" class="node"><title>\\API_Con_Service</title>
<a xlink:href="lib.class-api-con-service.html" xlink:title="API_Con_Service" target="_parent">
<polygon fill="none" stroke="black" points="134,-358 16,-358 16,-322 134,-322 134,-358"/>
<text text-anchor="middle" x="75" y="-337.1" font-family="Courier,monospace" font-size="11.00">API_Con_Service</text>
</a>
</g>
<!-- \\API_Con_DTO -->
<g id="node7" class="node"><title>\\API_Con_DTO</title>
<a xlink:href="lib.class-api-con-dto.html" xlink:title="API_Con_DTO" target="_parent">
<polygon fill="none" stroke="black" points="337,-142 247,-142 247,-106 337,-106 337,-142"/>
<text text-anchor="middle" x="292" y="-121.1" font-family="Courier,monospace" font-size="11.00">API_Con_DTO</text>
</a>
</g>
<!-- \\API_Con_Module_Dropbox -->
<g id="node8" class="node"><title>\\API_Con_Module_Dropbox</title>
<a xlink:href="modules.class-dropbox.html" xlink:title="API_Con_Module_Dropbox" target="_parent">
<polygon fill="none" stroke="black" points="374,-358 210,-358 210,-322 374,-322 374,-358"/>
<text text-anchor="middle" x="292" y="-337.1" font-family="Courier,monospace" font-size="11.00">API_Con_Module_Dropbox</text>
</a>
</g>
<!-- \\API_Con_Module_Dropbox&#45;&gt;\\API_Con_Service -->
<g id="edge5" class="edge"><title>\\API_Con_Module_Dropbox&#45;&gt;\\API_Con_Service</title>
<path fill="none" stroke="black" d="M209.343,-340C187.928,-340 165.087,-340 144.428,-340"/>
<polygon fill="none" stroke="black" points="144.161,-336.5 134.161,-340 144.161,-343.5 144.161,-336.5"/>
</g>
</g>
</svg>
