<?xml version="1.0" encoding="UTF-8" standalone="no"?>
<!DOCTYPE svg PUBLIC "-//W3C//DTD SVG 1.1//EN"
 "http://www.w3.org/Graphics/SVG/1.1/DTD/svg11.dtd">
<!-- Generated by graphviz version 2.26.3 (20100126.1600)
 -->
<!-- Title: G Pages: 1 -->
<svg width="438pt" height="620pt"
 viewBox="0.00 0.00 438.00 620.00" xmlns="http://www.w3.org/2000/svg" xmlns:xlink="http://www.w3.org/1999/xlink">
<g id="graph1" class="graph" transform="scale(1 1) rotate(0) translate(4 616)">
<title>G</title>
<polygon fill="white" stroke="white" points="-4,5 -4,-616 435,-616 435,5 -4,5"/>
<g id="graph2" class="cluster"><title>cluster_global</title>
<polyline fill="none" stroke="gray" points="30,-98 410,-98 "/>
<path fill="none" stroke="gray" d="M410,-98C416,-98 422,-104 422,-110"/>
<polyline fill="none" stroke="gray" points="422,-110 422,-592 "/>
<path fill="none" stroke="gray" d="M422,-592C422,-598 416,-604 410,-604"/>
<polyline fill="none" stroke="gray" points="410,-604 30,-604 "/>
<path fill="none" stroke="gray" d="M30,-604C24,-604 18,-598 18,-592"/>
<polyline fill="none" stroke="gray" points="18,-592 18,-110 "/>
<path fill="none" stroke="gray" d="M18,-110C18,-104 24,-98 30,-98"/>
<text text-anchor="middle" x="220" y="-590.1" font-family="Times Roman,serif" font-size="11.00" fill="gray">global</text>
</g>
<!-- \\API_Con_Model -->
<g id="node2" class="node"><title>\\API_Con_Model</title>
<a xlink:href="lib.class-api-con-model.html" xlink:title="API_Con_Model" target="_parent">
<polygon fill="none" stroke="black" points="380,-574 276,-574 276,-538 380,-538 380,-574"/>
<text text-anchor="middle" x="328" y="-553.1" font-family="Courier,monospace" font-size="11.00">API_Con_Model</text>
</a>
</g>
<!-- \\API_Con_Error -->
<g id="node3" class="node"><title>\\API_Con_Error</title>
<a xlink:href="lib.class-api-con-error.html" xlink:title="API_Con_Error" target="_parent">
<polygon fill="none" stroke="black" points="380,-196 276,-196 276,-160 380,-160 380,-196"/>
<text text-anchor="middle" x="328" y="-175.1" font-family="Courier,monospace" font-size="11.00">API_Con_Error</text>
</a>
</g>
<!-- \\WP_Error -->
<g id="node13" class="node"><title>\\WP_Error</title>
<ellipse fill="none" stroke="black" cx="85" cy="-72" rx="61.0181" ry="18.3848"/>
<text text-anchor="middle" x="85" y="-68.4" font-family="Times Roman,serif" font-size="14.00" fill="gray">\WP_Error</text>
</g>
<!-- \\API_Con_Error&#45;&gt;\\WP_Error -->
<g id="edge3" class="edge"><title>\\API_Con_Error&#45;&gt;\\WP_Error</title>
<path fill="none" stroke="black" d="M275.828,-164.98C264.361,-161.205 252.511,-156.565 242,-151 205.93,-131.903 206.545,-112.172 170,-94 162.722,-90.3811 154.789,-87.3154 146.789,-84.7293"/>
<polygon fill="none" stroke="black" points="147.62,-81.3248 137.036,-81.8078 145.611,-88.0304 147.62,-81.3248"/>
</g>
<!-- \\API_Con_View -->
<g id="node4" class="node"><title>\\API_Con_View</title>
<a xlink:href="lib.class-api-con-view.html" xlink:title="API_Con_View" target="_parent">
<polygon fill="none" stroke="black" points="377,-466 279,-466 279,-430 377,-430 377,-466"/>
<text text-anchor="middle" x="328" y="-445.1" font-family="Courier,monospace" font-size="11.00">API_Con_View</text>
</a>
</g>
<!-- \\API_Con_Dash_Service -->
<g id="node5" class="node"><title>\\API_Con_Dash_Service</title>
<a xlink:href="lib.class-api-con-dash-service.html" xlink:title="API_Con_Dash_Service" target="_parent">
<polygon fill="none" stroke="black" points="404,-142 252,-142 252,-106 404,-106 404,-142"/>
<text text-anchor="middle" x="328" y="-121.1" font-family="Courier,monospace" font-size="11.00">API_Con_Dash_Service</text>
</a>
</g>
<!-- \\WP_List_Table -->
<g id="node15" class="node"><title>\\WP_List_Table</title>
<ellipse fill="none" stroke="black" cx="85" cy="-18" rx="84.8528" ry="18.3848"/>
<text text-anchor="middle" x="85" y="-14.4" font-family="Times Roman,serif" font-size="14.00" fill="gray">\WP_List_Table</text>
</g>
<!-- \\API_Con_Dash_Service&#45;&gt;\\WP_List_Table -->
<g id="edge5" class="edge"><title>\\API_Con_Dash_Service&#45;&gt;\\WP_List_Table</title>
<path fill="none" stroke="black" d="M295.705,-105.982C264.246,-88.8831 214.756,-63.1677 170,-45 161.974,-41.7419 153.396,-38.6184 144.891,-35.7262"/>
<polygon fill="none" stroke="black" points="145.947,-32.3889 135.354,-32.5643 143.744,-39.0333 145.947,-32.3889"/>
</g>
<!-- \\API_Con_Manager -->
<g id="node6" class="node"><title>\\API_Con_Manager</title>
<a xlink:href="lib.class-api-con-manager.html" xlink:title="API_Con_Manager" target="_parent">
<polygon fill="none" stroke="black" points="387,-358 269,-358 269,-322 387,-322 387,-358"/>
<text text-anchor="middle" x="328" y="-337.1" font-family="Courier,monospace" font-size="11.00">API_Con_Manager</text>
</a>
</g>
<!-- \\API_Con_Service -->
<g id="node7" class="node"><title>\\API_Con_Service</title>
<a xlink:href="lib.class-api-con-service.html" xlink:title="API_Con_Service" target="_parent">
<polygon fill="none" stroke="black" points="144,-412 26,-412 26,-376 144,-376 144,-412"/>
<text text-anchor="middle" x="85" y="-391.1" font-family="Courier,monospace" font-size="11.00">API_Con_Service</text>
</a>
</g>
<!-- \\API_Con_DTO -->
<g id="node8" class="node"><title>\\API_Con_DTO</title>
<a xlink:href="lib.class-api-con-dto.html" xlink:title="API_Con_DTO" target="_parent">
<polygon fill="none" stroke="black" points="373,-304 283,-304 283,-268 373,-268 373,-304"/>
<text text-anchor="middle" x="328" y="-283.1" font-family="Courier,monospace" font-size="11.00">API_Con_DTO</text>
</a>
</g>
<!-- \\API_Con_Module_Dropbox -->
<g id="node9" class="node"><title>\\API_Con_Module_Dropbox</title>
<a xlink:href="modules.class-dropbox.html" xlink:title="API_Con_Module_Dropbox" target="_parent">
<polygon fill="none" stroke="black" points="410,-520 246,-520 246,-484 410,-484 410,-520"/>
<text text-anchor="middle" x="328" y="-499.1" font-family="Courier,monospace" font-size="11.00">API_Con_Module_Dropbox</text>
</a>
</g>
<!-- \\API_Con_Module_Dropbox&#45;&gt;\\API_Con_Service -->
<g id="edge7" class="edge"><title>\\API_Con_Module_Dropbox&#45;&gt;\\API_Con_Service</title>
<path fill="none" stroke="black" d="M266.002,-483.945C257.851,-481.161 249.67,-478.155 242,-475 200.952,-458.115 156.142,-434.436 124.941,-417.04"/>
<polygon fill="none" stroke="black" points="126.548,-413.928 116.115,-412.084 123.121,-420.032 126.548,-413.928"/>
</g>
<!-- \\API_Con_Module_Github -->
<g id="node10" class="node"><title>\\API_Con_Module_Github</title>
<a xlink:href="modules.class-github.html" xlink:title="API_Con_Module_Github" target="_parent">
<polygon fill="none" stroke="black" points="407,-412 249,-412 249,-376 407,-376 407,-412"/>
<text text-anchor="middle" x="328" y="-391.1" font-family="Courier,monospace" font-size="11.00">API_Con_Module_Github</text>
</a>
</g>
<!-- \\API_Con_Module_Github&#45;&gt;\\API_Con_Service -->
<g id="edge9" class="edge"><title>\\API_Con_Module_Github&#45;&gt;\\API_Con_Service</title>
<path fill="none" stroke="black" d="M248.769,-394C218.291,-394 183.76,-394 154.289,-394"/>
<polygon fill="none" stroke="black" points="154.091,-390.5 144.091,-394 154.091,-397.5 154.091,-390.5"/>
</g>
<!-- \\API_Con_Module_Facebook -->
<g id="node11" class="node"><title>\\API_Con_Module_Facebook</title>
<a xlink:href="modules.class-facebook.html" xlink:title="API_Con_Module_Facebook" target="_parent">
<polygon fill="none" stroke="black" points="414,-250 242,-250 242,-214 414,-214 414,-250"/>
<text text-anchor="middle" x="328" y="-229.1" font-family="Courier,monospace" font-size="11.00">API_Con_Module_Facebook</text>
</a>
</g>
<!-- \\API_Con_Module_Facebook&#45;&gt;\\API_Con_Service -->
<g id="edge11" class="edge"><title>\\API_Con_Module_Facebook&#45;&gt;\\API_Con_Service</title>
<path fill="none" stroke="black" d="M256.103,-250.176C251.114,-252.743 246.347,-255.669 242,-259 194.732,-295.222 218.175,-336.994 170,-372 165.102,-375.559 159.678,-378.543 154.009,-381.045"/>
<polygon fill="none" stroke="black" points="152.343,-377.937 144.286,-384.817 154.875,-384.463 152.343,-377.937"/>
</g>
</g>
</svg>
